<?xml version="1.0" encoding="utf-8"?>
<!-- Generator: Adobe Illustrator 21.0.0, SVG Export Plug-In . SVG Version: 6.00 Build 0)  -->
<svg version="1.1" xmlns="http://www.w3.org/2000/svg" xmlns:xlink="http://www.w3.org/1999/xlink" x="0px" y="0px"
	 viewBox="0 0 470 470" style="enable-background:new 0 0 470 470;" xml:space="preserve">
<style type="text/css">
	.st0{fill:#4267B2;stroke:#4267B2;stroke-miterlimit:10;}
	.st1{fill:#FFFFFF;stroke:#FFFFFF;stroke-miterlimit:10;}
</style>
<g id="Círculo">
	<circle class="st0" cx="240.5" cy="234.6" r="222.2"/>
</g>
<g id="F">
	<path class="st1" d="M292.7,78c-17.7,3.2-23.8,6.2-34,12c-10.9,6.2-18.5,12.7-23.7,18c-17,17.6-20.8,34-24,46.7
		c-4.8,18.7-4.3,36.3-4.3,36.3v13.7H171v62.1h35.7v187.5c11,1.7,22.3,2.6,33.8,2.6c17,0,33.6-1.9,49.5-5.5V266.8h54.3v-62.1H290
		v-12.7v-0.5c0,0,0-2.4,0-2.7c0-0.3,0-0.7,0-1c0-2.7,0.1-6.7,0.7-10.2c1.5-9.1,4.6-16.2,9.8-22.5c6-7.2,13-10.3,20.8-11.5
		c19.3-3,35.4,3.7,35.4,3.7l3-65.3c0,0-12.1-3.9-32.1-5.3C313.5,75.7,301,76.5,292.7,78z"/>
</g>
</svg>
